<?xml version="1.0" encoding="iso-8859-1"?>
<!-- Uploaded to: SVG Repo, www.svgrepo.com, Generator: SVG Repo Mixer Tools -->
<svg height="800px" width="800px" version="1.1" id="Layer_1" xmlns="http://www.w3.org/2000/svg" xmlns:xlink="http://www.w3.org/1999/xlink" 
	 viewBox="0 0 447.926 447.926" xml:space="preserve">
<g transform="translate(0 -1020.36)" shape-rendering="auto" image-rendering="auto" color-rendering="auto" color-interpolation="sRGB">
	<path style="fill:#464C63;" d="M219.176,1020.36c-5.915,0.4-9.353,6.874-6.376,12c0.336,0.576,0.672,3.123-1.152,8.03
		c-1.834,4.909-5.398,11.272-9.374,17.907c-3.978,6.635-8.349,13.572-11.875,20.438c-3.528,6.865-6.493,13.549-6.438,20.969
		c0.16,17.803,16.234,32.623,35.75,32.623c10.355,0,18.973-5.367,24.781-12.188c5.81-6.82,9.358-15.146,10.845-23.156
		c3.01-16.227-5.229-33.463-13.032-47.844c-7.563-13.94-15.168-24.153-15.656-24.813l0,0c-0.014,0-0.464-0.752-0.464-0.752
		c-1.63-2.178-4.255-3.378-6.968-3.188L219.176,1020.36z"/>
	<path style="fill:#FFB900;" d="M224.269,1050.516c1.814,2.945,2.069,2.746,3.97,6.252c7.182,13.238,12.805,29.605,11.374,37.313
		c-0.992,5.32-3.664,11.439-7.282,15.688c-3.616,4.246-7.654,6.563-12.624,6.563c-11.123,0-19.674-9.234-19.75-16.719
		c-0.011-2.379,1.606-7.596,4.656-13.531c3.056-5.949,7.282-12.703,11.374-19.531c3.195-5.332,5.85-10.689,8.282-16.031
		L224.269,1050.516z"/>
	<path style="fill:#464C63;" d="M287.963,1129.729l-128,36.563v174.313l-72.032,0.367c-4.42,0-7.988,3.617-7.968,8.037
		c0.336,51.91,34.795,98.41,86.938,118.75c0.927,0.352,1.913,0.527,2.906,0.527h108.125c0.993,0.006,1.979-0.176,2.907-0.527
		c52.477-20.377,87.051-67.229,87.125-119.438c0.018-4.43-3.569-8.031-8-8.031h-72V1129.729z M271.963,1150.948v189.344
		c-32.019-0.16-63.983,0.16-95.994,0.256v-162.156L271.963,1150.948z M108.963,1396.323h230c-12.491,24.33-34.155,44.537-62.938,56
		H171.712C143.003,1440.839,121.419,1420.628,108.963,1396.323L108.963,1396.323z"/>
	<path style="fill:#FFB900;" d="M350.649,1356.323c-0.672,8.291-2.576,16.336-5.125,24.154c-84.382,0-170.638-0.447-243.125,0
		c-2.485-7.633-4.357-15.475-5.062-23.563c92.733-0.641,162.454-0.623,253.312-0.623V1356.323z"/>
	<path style="fill:#464C63;" d="M215.957,1188.329v16h-16v16h16v40h16v-40h16v-16h-16v-16H215.957z"/>
</g>
</svg>